<svg width="31" height="38" viewBox="0 0 31 38" fill="none" xmlns="http://www.w3.org/2000/svg">
<path d="M15.2312 0.150024C11.3124 0.154648 7.55542 1.71344 4.7844 4.48446C2.01338 7.25548 0.45459 11.0125 0.449967 14.9313C0.445273 18.1337 1.49135 21.2493 3.42772 23.8C3.42772 23.8 3.83084 24.3308 3.89669 24.4074L15.2312 37.775L26.5711 24.4007C26.6302 24.3295 27.0347 23.8 27.0347 23.8L27.0361 23.796C28.9715 21.2464 30.0171 18.1323 30.0125 14.9313C30.0078 11.0125 28.4491 7.25548 25.678 4.48446C22.907 1.71344 19.15 0.154648 15.2312 0.150024ZM15.2312 20.3063C14.1681 20.3063 13.1289 19.991 12.245 19.4004C11.3611 18.8098 10.6722 17.9704 10.2654 16.9882C9.85854 16.006 9.7521 14.9253 9.9595 13.8827C10.1669 12.84 10.6788 11.8823 11.4305 11.1306C12.1822 10.3789 13.14 9.86695 14.1826 9.65955C15.2253 9.45216 16.306 9.5586 17.2881 9.96542C18.2703 10.3722 19.1098 11.0612 19.7004 11.9451C20.291 12.829 20.6062 13.8682 20.6062 14.9313C20.6044 16.3563 20.0376 17.7224 19.03 18.73C18.0223 19.7376 16.6562 20.3045 15.2312 20.3063Z" fill="#018ABE"/>
</svg>
